{"title":"The Terminator (1984) - REMASTERED (HD 720p).m4v","uid":11222898,"size":6465312149,"categoryP":"video","categoryS":"hd___movies","magnet":"?xt=urn:btih:88c05c8825c5e990f531ca0e7926aac0c32a80d4&amp;dn=The+Terminator+%281984%29+-+REMASTERED+%28HD+720p%29.m4v&amp;tr=udp%3A%2F%2Ftracker.openbittorrent.com%3A80&amp;tr=udp%3A%2F%2Fopen.demonii.com%3A1337&amp;tr=udp%3A%2F%2Ftracker.coppersurfer.tk%3A6969&amp;tr=udp%3A%2F%2Fexodus.desync.com%3A6969","seeders":1,"leechers":0,"uploader":"arctictpb","files":1,"time":1413406863,"description":"General\nComplete name : The Terminator (1984) - REMASTERED (HD 720p).m4v\nFormat : MPEG-4\nFormat profile : Base Media / Version 2\nCodec ID : mp42\nFile size : 6.02 GiB\nDuration : 1h 47mn\nOverall bit rate mode : Variable\nOverall bit rate : 8 026 Kbps\nMovie name : The Terminator\nPerformer : Arnold Schwarzenegger, Michael Biehn, Linda Hamilton, Paul Winfield, Lance Henriksen, Bess Motta, Earl Boen, Rick Rossovich, Bill Paxton, Brian Thompson, Franco Columbu, Dick Miller\nGenre : Action, Thriller, Science Fiction\nContentType : Short Film\nDescription : In the post-apocalyptic future, reigning tyrannical supercomputers teleport a cyborg assassin known as the &quot;Terminator&quot; back to 1984 to snuff Sarah Connor, whose unborn son is destined to lead insurgents against 21st century mechanical hegemony. Meanwhile, the human-resistance movement dispatches a lone warrior to safeguard Sarah. Can he stop the virtually indestructible killing machine?\nRecorded date : 1984-10-26\nEncoded date : UTC 2013-04-08 20:40:15\nTagged date : UTC 2013-04-10 06:55:16\nWriting application : HandBrake 5385svn 2013040801\nCover : Yes\nRating : None\nLongDescription : In the post-apocalyptic future, reigning tyrannical supercomputers teleport a cyborg assassin known as the &quot;Terminator&quot; back to 1984 to snuff Sarah Connor, whose unborn son is destined to lead insurgents against 21st century mechanical hegemony. Meanwhile, the human-resistance movement dispatches a lone warrior to safeguard Sarah. Can he stop the virtually indestructible killing machine?\nHDVideo : Yes\n\nVideo #1\nID : 1\nFormat : AVC\nFormat/Info : Advanced Video Codec\nFormat profile : &lt;a class=&quot;__cf_email__&quot; href=&quot;/cdn-cgi/l/email-protection&quot; data-cfemail=&quot;c189a8a6a9818df2eff0&quot;&gt;[email&amp;#160;protected]&lt;/a&gt;&lt;script cf-hash='f9e31' type=&quot;text/javascript&quot;&gt;\n/* &lt;![CDATA[ */!function(){try{var t=&quot;currentScript&quot;in document?document.currentScript:function(){for(var t=document.getElementsByTagName(&quot;script&quot;),e=t.length;e--;)if(t[e].getAttribute(&quot;cf-hash&quot;))return t[e]}();if(t&amp;&amp;t.previousSibling){var e,r,n,i,c=t.previousSibling,a=c.getAttribute(&quot;data-cfemail&quot;);if(a){for(e=&quot;&quot;,r=parseInt(a.substr(0,2),16),n=2;a.length-n;n+=2)i=parseInt(a.substr(n,2),16)^r,e+=String.fromCharCode(i);e=document.createTextNode(e),c.parentNode.replaceChild(e,c)}}}catch(u){}}();/* ]]&gt; */&lt;/script&gt;\nFormat settings, CABAC : Yes\nFormat settings, ReFrames : 4 frames\nCodec ID : avc1\nCodec ID/Info : Advanced Video Coding\nDuration : 1h 47mn\nBit rate : 7 146 Kbps\nWidth : 1 280 pixels\nHeight : 692 pixels\nDisplay aspect ratio : 1.85:1\nFrame rate mode : Variable\nFrame rate : 23.976 fps\nMinimum frame rate : 23.810 fps\nMaximum frame rate : 30.000 fps\nColor space : YUV\nChroma subsampling : 4:2:0\nBit depth : 8 bits\nScan type : Progressive\nBits/(Pixel*Frame) : 0.336\nStream size : 5.36 GiB (89%)\nWriting library : x264 core 130\nEncoding settings : cabac=1 / ref=4 / deblock=1:0:0 / analyse=0x3:0x133 / me=umh / subme=10 / psy=1 / psy_rd=1.00:0.15 / mixed_ref=1 / me_range=32 / chroma_me=1 / trellis=2 / 8x8dct=1 / cqm=0 / deadzone=21,11 / fast_pskip=1 / chroma_qp_offset=-3 / threads=12 / lookahead_threads=1 / sliced_threads=0 / nr=0 / decimate=1 / interlaced=0 / bluray_compat=0 / constrained_intra=0 / bframes=4 / b_pyramid=2 / b_adapt=2 / b_bias=0 / direct=3 / weightb=1 / open_gop=0 / weightp=2 / keyint=300 / keyint_min=30 / scenecut=40 / intra_refresh=0 / rc_lookahead=60 / rc=crf / mbtree=1 / crf=18.5 / qcomp=0.60 / qpmin=0 / qpmax=69 / qpstep=4 / vbv_maxrate=17500 / vbv_bufsize=17500 / crf_max=0.0 / nal_hrd=none / ip_ratio=1.40 / aq=1:1.00\nLanguage : English\nEncoded date : UTC 2013-04-08 20:40:15\nTagged date : UTC 2013-04-09 00:49:55\nColor primaries : BT.709\nTransfer characteristics : BT.709\nMatrix coefficients : BT.709\n\nVideo #2\nID : 5\nFormat : JPEG\nCodec ID : jpeg\nDuration : 1h 47mn\nSource duration : 1h 47mn\nSource_Duration_LastFrame : -2mn 35s\nBit rate mode : Variable\nBit rate : 1 027 bps\nWidth : 640 pixels\nHeight : 346 pixels\nDisplay aspect ratio : 1.85:1\nFrame rate mode : Constant\nFrame rate : 0.003 fps\nColor space : YUV\nChroma subsampling : 4:2:0\nBit depth : 8 bits\nCompression mode : Lossy\nBits/(Pixel*Frame) : 1.546\nStream size : 878 KiB (0%)\nSource stream size : 913 KiB (0%)\nLanguage : English\nEncoded date : UTC 2013-04-10 06:55:15\nTagged date : UTC 2013-04-10 06:55:16\n\nAudio #1\nID : 2\nFormat : AAC\nFormat/Info : Advanced Audio Codec\nFormat profile : LC\nCodec ID : 40\nDuration : 1h 47mn\nBit rate mode : Variable\nBit rate : 230 Kbps\nMaximum bit rate : 434 Kbps\nChannel(s) : 2 channels\nChannel positions : Front: L R\nSampling rate : 48.0 KHz\nCompression mode : Lossy\nStream size : 177 MiB (3%)\nLanguage : English\nEncoded date : UTC 2013-04-08 20:40:15\nTagged date : UTC 2013-04-09 00:49:54\n\nAudio #2\nID : 3\nFormat : AC-3\nFormat/Info : Audio Coding 3\nMode extension : CM (complete main)\nFormat settings, Endianness : Big\nCodec ID : ac-3\nDuration : 1h 47mn\nBit rate mode : Constant\nBit rate : 640 Kbps\nChannel(s) : 6 channels\nChannel positions : Front: L C R, Side: L R, LFE\nSampling rate : 48.0 KHz\nBit depth : 16 bits\nCompression mode : Lossy\nStream size : 492 MiB (8%)\nLanguage : English\nEncoded date : UTC 2013-04-08 20:40:15\nTagged date : UTC 2013-04-09 00:49:54","torrent":{"xt":"urn:btih:88c05c8825c5e990f531ca0e7926aac0c32a80d4","amp;dn":"The+Terminator+%281984%29+-+REMASTERED+%28HD+720p%29.m4v","amp;tr":["udp%3A%2F%2Ftracker.openbittorrent.com%3A80","udp%3A%2F%2Fopen.demonii.com%3A1337","udp%3A%2F%2Ftracker.coppersurfer.tk%3A6969","udp%3A%2F%2Fexodus.desync.com%3A6969"],"infoHash":"88c05c8825c5e990f531ca0e7926aac0c32a80d4","infoHashBuffer":{"type":"Buffer","data":[136,192,92,136,37,197,233,144,245,49,202,14,121,38,170,192,195,42,128,212]},"announce":[],"urlList":[]}}